<svg width="31" height="30" viewBox="0 0 31 30" fill="none" xmlns="http://www.w3.org/2000/svg">
<path d="M15.5 20C15.3355 20.0009 15.1724 19.9694 15.0201 19.9072C14.8678 19.845 14.7293 19.7533 14.6125 19.6375L7.11249 12.1375C6.87711 11.9021 6.74487 11.5829 6.74487 11.25C6.74487 10.9171 6.87711 10.5979 7.11249 10.3625C7.34787 10.1271 7.66711 9.99487 7.99999 9.99487C8.33286 9.99487 8.65211 10.1271 8.88749 10.3625L15.5 16.9875L22.1125 10.375C22.3516 10.1702 22.6592 10.0632 22.9738 10.0753C23.2884 10.0875 23.5868 10.2179 23.8094 10.4405C24.0321 10.6632 24.1625 10.9616 24.1746 11.2762C24.1868 11.5908 24.0798 11.8984 23.875 12.1375L16.375 19.6375C16.1422 19.8684 15.8279 19.9986 15.5 20Z" fill="black"/>
</svg>
