<svg width="40" height="41" viewBox="0 0 40 41" fill="none" xmlns="http://www.w3.org/2000/svg">
<path d="M20.0001 13.8333C20.2194 13.8321 20.4369 13.8741 20.6399 13.9571C20.843 14.04 21.0277 14.1622 21.1834 14.3167L31.1834 24.3167C31.4973 24.6305 31.6736 25.0562 31.6736 25.5C31.6736 25.9438 31.4973 26.3695 31.1834 26.6833C30.8696 26.9972 30.4439 27.1735 30.0001 27.1735C29.5563 27.1735 29.1306 26.9972 28.8168 26.6833L20.0001 17.85L11.1834 26.6667C10.8646 26.9397 10.4545 27.0824 10.035 27.0662C9.61555 27.05 9.21765 26.8761 8.92083 26.5793C8.624 26.2825 8.45012 25.8846 8.43391 25.4651C8.41771 25.0456 8.56039 24.6355 8.83343 24.3167L18.8334 14.3167C19.1439 14.0088 19.5629 13.8352 20.0001 13.8333Z" fill="url(#paint0_linear_6_1355)"/>
<defs>
<linearGradient id="paint0_linear_6_1355" x1="20.0531" y1="13.8333" x2="20.0531" y2="27.1735" gradientUnits="userSpaceOnUse">
<stop stop-color="#2BA59B"/>
<stop offset="1" stop-color="#103F3B"/>
</linearGradient>
</defs>
</svg>
