<svg width="40" height="41" viewBox="0 0 40 41" fill="none" xmlns="http://www.w3.org/2000/svg">
<path d="M19.8939 13.8265C20.1132 13.8253 20.3307 13.8673 20.5337 13.9503C20.7368 14.0332 20.9215 14.1554 21.0772 14.3099L31.0772 24.3099C31.3911 24.6237 31.5674 25.0494 31.5674 25.4932C31.5674 25.937 31.3911 26.3627 31.0772 26.6765C30.7634 26.9904 30.3377 27.1667 29.8939 27.1667C29.4501 27.1667 29.0244 26.9904 28.7106 26.6765L19.8939 17.8432L11.0772 26.6599C10.7584 26.9329 10.3483 27.0756 9.92881 27.0594C9.50935 27.0432 9.11145 26.8693 8.81462 26.5725C8.5178 26.2757 8.34392 25.8778 8.32771 25.4583C8.31151 25.0388 8.45419 24.6287 8.72723 24.3099L18.7272 14.3099C19.0377 14.002 19.4567 13.8284 19.8939 13.8265Z" fill="url(#paint0_linear_14_2065)"/>
<defs>
<linearGradient id="paint0_linear_14_2065" x1="19.9469" y1="13.8265" x2="19.9469" y2="27.1667" gradientUnits="userSpaceOnUse">
<stop stop-color="#2BA59B"/>
<stop offset="1" stop-color="#103F3B"/>
</linearGradient>
</defs>
</svg>
