<svg width="40" height="41" viewBox="0 0 40 41" fill="none" xmlns="http://www.w3.org/2000/svg">
<path d="M19.9999 27.1667C19.7806 27.1679 19.5631 27.1259 19.3601 27.043C19.157 26.96 18.9723 26.8378 18.8166 26.6833L8.81657 16.6833C8.50273 16.3695 8.32642 15.9438 8.32642 15.5C8.32642 15.0562 8.50273 14.6305 8.81657 14.3167C9.13041 14.0028 9.55607 13.8265 9.9999 13.8265C10.4437 13.8265 10.8694 14.0028 11.1832 14.3167L19.9999 23.15L28.8166 14.3333C29.1354 14.0603 29.5455 13.9176 29.965 13.9338C30.3845 13.95 30.7824 14.1239 31.0792 14.4207C31.376 14.7176 31.5499 15.1155 31.5661 15.5349C31.5823 15.9544 31.4396 16.3645 31.1666 16.6833L21.1666 26.6833C20.8561 26.9912 20.4371 27.1648 19.9999 27.1667Z" fill="url(#paint0_linear_14_2065)"/>
<defs>
<linearGradient id="paint0_linear_14_2065" x1="19.9469" y1="27.1667" x2="19.9469" y2="13.8265" gradientUnits="userSpaceOnUse">
<stop stop-color="#2BA59B"/>
<stop offset="1" stop-color="#103F3B"/>
</linearGradient>
</defs>
</svg>
