<svg width="12" height="20" viewBox="0 0 12 20" fill="none" xmlns="http://www.w3.org/2000/svg">
<path d="M7.559 19.9004H3.78299C3.77513 19.7457 3.75943 19.6051 3.75943 19.4644C3.75943 17.594 3.75943 15.7165 3.75943 13.846C3.75943 13.0795 3.75943 12.306 3.75943 11.5395C3.75943 11.4481 3.74373 11.3497 3.73588 11.2231C2.66039 11.1809 1.60059 11.2231 0.50939 11.188C0.49369 10.0769 0.49369 9.00106 0.540792 7.89706C0.697799 7.89003 0.815554 7.87596 0.941159 7.87596C1.72619 7.87596 2.51123 7.87596 3.28841 7.87596C3.43757 7.87596 3.57888 7.85487 3.77514 7.84081C3.77514 7.69314 3.77514 7.5736 3.77514 7.44702C3.77514 6.76494 3.77514 6.08285 3.77514 5.40076C3.77514 4.72571 3.86934 4.05768 4.1441 3.42482C4.74073 2.03955 5.87118 1.24495 7.4648 0.984773C7.99077 0.900391 8.53245 0.900391 9.06627 0.900391C9.85915 0.907422 10.652 0.963677 11.4214 0.998836C11.5234 1.28011 11.5234 3.62874 11.4371 3.98033C11.3507 3.98033 11.2565 3.9944 11.1623 3.9944C10.6285 3.9944 10.0868 3.98736 9.55299 3.9944C9.27823 3.9944 8.99562 4.02252 8.72085 4.07175C8.13993 4.18425 7.77881 4.51475 7.66891 5.04214C7.62966 5.232 7.6061 5.42186 7.6061 5.61172C7.6061 6.25864 7.6061 6.89854 7.6061 7.54547C7.6061 7.86893 7.6061 7.87596 7.99077 7.87596C8.94851 7.87596 9.89841 7.883 10.8561 7.89003C10.9975 7.89003 11.1309 7.89003 11.3193 7.89003C11.1859 9.01512 11.0132 10.098 10.8483 11.2161H7.63751C7.62181 11.3638 7.6061 11.4833 7.6061 11.6028C7.59825 12.8826 7.5904 14.1554 7.58255 15.4352C7.58255 16.7923 7.5747 18.1424 7.56685 19.4996C7.56685 19.6262 7.56685 19.7457 7.56685 19.9004H7.559Z" fill="#FFFAF3"/>
</svg>
