<svg width="20" height="20" viewBox="0 0 20 20" fill="none" xmlns="http://www.w3.org/2000/svg">
<g clip-path="url(#clip0_25_1327)">
<path d="M10.0513 0.900391C11.4636 0.942411 12.9041 0.977427 14.3446 1.04046C15.3072 1.08248 16.2207 1.3346 17.0498 1.84584C18.2514 2.58819 18.9611 3.6737 19.2702 5.03235C19.4459 5.80271 19.481 6.58708 19.488 7.37146C19.5021 9.40942 19.5021 11.4474 19.488 13.4854C19.488 14.2557 19.4459 15.0331 19.2702 15.7964C18.9329 17.2531 18.153 18.3877 16.832 19.116C16.0731 19.5362 15.244 19.7323 14.3797 19.7953C12.7987 19.9004 11.2177 19.9074 9.62969 19.8934C8.54759 19.8864 7.45846 19.8724 6.37636 19.8374C5.4629 19.8093 4.55647 19.7043 3.69922 19.3471C2.42037 18.8149 1.53502 17.8974 1.02207 16.6158C0.691821 15.7894 0.614528 14.928 0.572368 14.0596C0.481022 12.1757 0.502102 10.2988 0.502102 8.42896C0.502102 7.58856 0.544262 6.74816 0.614528 5.90776C0.705874 4.80124 1.05018 3.77175 1.75987 2.89634C2.46956 2.02792 3.37599 1.47466 4.45809 1.22254C4.91482 1.11749 5.38561 1.04046 5.84937 1.02645C7.24064 0.96342 8.63191 0.942411 10.0513 0.900391ZM2.16741 10.3759C2.16741 10.3759 2.19552 10.3759 2.20957 10.3759C2.20957 11.3353 2.19552 12.2878 2.20957 13.2472C2.22363 13.8425 2.24471 14.4378 2.322 15.0191C2.51172 16.4758 3.27059 17.5053 4.71808 17.9465C5.09752 18.0655 5.50506 18.1356 5.90558 18.1496C6.98768 18.1986 8.07681 18.2266 9.15891 18.2336C10.4869 18.2406 11.8079 18.2266 13.136 18.2126C13.7824 18.2056 14.4219 18.1846 15.0542 18.0375C16.0099 17.8204 16.7687 17.3232 17.2606 16.4688C17.5417 15.9785 17.6963 15.4463 17.7384 14.886C17.7876 14.2277 17.8368 13.5694 17.8368 12.9111C17.8438 11.0062 17.8438 9.10128 17.8227 7.19637C17.8227 6.63611 17.7595 6.06884 17.6611 5.51558C17.4784 4.47909 16.9304 3.6737 15.9888 3.16246C15.3845 2.83331 14.731 2.70024 14.0494 2.67223C13.0446 2.63721 12.0328 2.6022 11.028 2.59519C9.6578 2.58819 8.28058 2.6022 6.91039 2.62321C6.28502 2.63021 5.65965 2.65822 5.04833 2.79129C3.68516 3.08543 2.79278 3.8768 2.42037 5.22844C2.28687 5.71867 2.23768 6.22992 2.22363 6.73415C2.19552 7.94573 2.18147 9.16431 2.16039 10.3829L2.16741 10.3759Z" fill="#FFFAF3"/>
<path d="M10.0211 15.2573C7.32994 15.2853 5.13061 13.0652 5.15871 10.369C5.18682 7.70769 7.35805 5.56467 10.0352 5.57868C12.7264 5.59269 14.8906 7.76372 14.8836 10.432C14.8765 13.1843 12.6069 15.2993 10.0211 15.2573ZM13.2183 10.432C13.2183 8.66014 11.7708 7.21746 9.99303 7.21746C8.26448 7.21746 6.817 8.66714 6.817 10.39C6.817 12.1898 8.23638 13.6045 10.0563 13.6045C11.7848 13.6045 13.2112 12.1688 13.2112 10.432H13.2183Z" fill="#FFFAF3"/>
<path d="M16.2115 5.33356C16.2185 5.95686 15.7337 6.45409 15.1153 6.4611C14.497 6.4611 14.0051 5.99187 13.9981 5.38959C13.984 4.76629 14.4689 4.25505 15.0802 4.24805C15.7126 4.24805 16.2045 4.71727 16.2115 5.33356Z" fill="#FFFAF3"/>
</g>
<defs>
<clipPath id="clip0_25_1327">
<rect width="19" height="19" fill="white" transform="translate(0.5 0.900391)"/>
</clipPath>
</defs>
</svg>
