<svg width="20" height="20" viewBox="0 0 20 20" fill="none" xmlns="http://www.w3.org/2000/svg">
<g clip-path="url(#clip0_25_1336)">
<path d="M6.11524 19.0287C2.22376 17.4471 -0.802165 12.4493 1.06265 7.21255C2.79376 2.35535 8.17006 -0.371985 13.2719 1.49076C18.2119 3.29727 20.7593 8.79413 18.8804 13.7427C16.903 18.9724 11.3438 20.8071 7.36784 19.4926C7.46635 19.3169 7.56487 19.1411 7.66339 18.9654C8.04339 18.2976 8.28265 17.5807 8.45858 16.8426C8.59932 16.2381 8.76821 15.6406 8.92302 15.0361C8.94413 15.022 8.97228 15.008 8.99339 14.9939C9.02154 15.0431 9.03561 15.1064 9.0708 15.1485C9.60561 15.746 10.2952 16.0553 11.0834 16.0834C12.8989 16.1467 14.2641 15.3313 15.2493 13.8552C15.9319 12.8359 16.2556 11.6831 16.3682 10.4741C16.4175 9.95395 16.4456 9.44081 16.3682 8.92065C16.2134 7.72568 15.6997 6.69942 14.8482 5.84888C13.6871 4.68906 12.2515 4.13375 10.6189 4.07752C9.46487 4.03534 8.34598 4.19701 7.29746 4.66797C5.26376 5.56771 3.98302 7.09305 3.60302 9.30726C3.42006 10.3827 3.5608 11.4371 4.08858 12.4142C4.39117 12.9695 4.82746 13.3983 5.41154 13.6584C5.75635 13.813 5.92524 13.7357 6.0308 13.3631C6.09413 13.1312 6.15043 12.8992 6.20672 12.6672C6.24895 12.4985 6.22784 12.3439 6.11524 12.2103C5.36228 11.3387 5.32709 10.3195 5.55932 9.27211C5.86191 7.90844 6.64302 6.88921 7.89561 6.25658C8.79635 5.79968 9.76746 5.69424 10.7597 5.8067C11.4704 5.88403 12.1249 6.10193 12.7089 6.53774C13.4127 7.06494 13.8419 7.77489 13.9615 8.63245C14.1656 10.0734 13.9334 11.4652 13.286 12.7797C13.0326 13.2928 12.6878 13.7427 12.1952 14.066C11.6956 14.3964 11.1608 14.5229 10.5767 14.3613C9.84487 14.1504 9.42265 13.5318 9.55635 12.7797C9.6408 12.3087 9.79561 11.8518 9.92228 11.3879C10.056 10.9099 10.2038 10.4319 10.3164 9.94692C10.3797 9.67981 10.4078 9.39161 10.3938 9.11747C10.3586 8.02794 9.33117 7.45154 8.38117 7.98577C7.80413 8.30208 7.50154 8.8363 7.34672 9.44784C7.15672 10.1648 7.22709 10.8818 7.45932 11.5777C7.51561 11.7394 7.51561 11.887 7.48043 12.0557C7.12858 13.5107 6.7908 14.9728 6.43895 16.4279C6.24191 17.2222 6.11524 18.0305 6.12932 18.853C6.12932 18.9162 6.12228 18.9865 6.11524 19.0779V19.0287Z" fill="#FFFAF3"/>
</g>
<defs>
<clipPath id="clip0_25_1336">
<rect width="19" height="19" fill="white" transform="translate(0.5 0.900391)"/>
</clipPath>
</defs>
</svg>
