<svg width="19" height="21" viewBox="0 0 19 21" fill="none" xmlns="http://www.w3.org/2000/svg">
<g clip-path="url(#clip0_25_1338)">
<path d="M14.1605 11.9791C14.1448 12.0709 14.1313 12.1495 14.1178 12.228C14.0182 12.8048 13.8581 13.3643 13.5891 13.8918C13.2035 14.6475 12.649 15.254 11.8675 15.6573C11.3944 15.9014 10.8866 16.0434 10.3555 16.1104C9.88354 16.17 9.41069 16.1763 8.93825 16.1128C8.159 16.0082 7.44332 15.7531 6.82921 15.2733C6.13953 14.7344 5.74051 14.04 5.64383 13.1917C5.58076 12.6385 5.6482 12.1011 5.87873 11.587C6.13669 11.0117 6.55124 10.5605 7.0894 10.2099C7.6376 9.85289 8.24674 9.63926 8.89397 9.51693C9.53205 9.39624 10.1779 9.38508 10.825 9.39488C11.3028 9.40216 11.7777 9.44126 12.2497 9.51295C12.2796 9.51751 12.3099 9.51916 12.3472 9.52284C12.3487 9.50305 12.354 9.48452 12.3509 9.46745C12.2759 9.05989 12.1487 8.67038 11.9168 8.31666C11.6263 7.87341 11.2092 7.58877 10.6875 7.4513C10.0066 7.27192 9.32264 7.26871 8.64606 7.4771C8.13381 7.63494 7.72159 7.92773 7.4089 8.34703C7.39518 8.36537 7.38087 8.38341 7.36665 8.40136C7.36472 8.40388 7.36137 8.40534 7.34623 8.4161C6.85348 8.09693 6.35991 7.77028 5.85487 7.43995C5.87792 7.40551 5.89772 7.3733 5.92007 7.34283C6.47132 6.59253 7.20273 6.07369 8.11462 5.78857C8.73361 5.59502 9.36996 5.53468 10.018 5.56844C10.4832 5.59269 10.939 5.66526 11.3811 5.80904C12.3917 6.13772 13.1349 6.76152 13.6228 7.6656C13.9256 8.22673 14.0937 8.82686 14.1785 9.44989C14.2025 9.62607 14.2165 9.80351 14.2352 9.98036C14.2375 10.0026 14.2407 10.0248 14.2432 10.0433C14.4323 10.1333 14.6192 10.2167 14.8006 10.3095C15.5264 10.681 16.1517 11.1671 16.6479 11.7988C17.101 12.3756 17.3831 13.0236 17.5287 13.7285C17.6222 14.1814 17.6547 14.6387 17.6239 15.0989C17.5515 16.1837 17.1767 17.1662 16.484 18.0272C15.5148 19.2321 14.2646 20.0588 12.7391 20.5001C12.0885 20.6883 11.4229 20.7976 10.7463 20.8498C10.311 20.8833 9.87531 20.9098 9.43821 20.8972C8.48418 20.8696 7.54295 20.7592 6.62416 20.5019C4.94959 20.0327 3.57166 19.1512 2.52511 17.8098C1.97873 17.1095 1.56956 16.3398 1.26255 15.5189C0.975855 14.7524 0.786959 13.9633 0.667122 13.1582C0.567392 12.4884 0.516106 11.8153 0.502497 11.139C0.489498 10.4915 0.523215 9.8461 0.593289 9.2027C0.697487 8.24536 0.890852 7.30539 1.2198 6.39345C1.57118 5.41943 2.0616 4.51758 2.74569 3.71663C3.68215 2.62017 4.86072 1.85939 6.25967 1.40487C6.98713 1.16845 7.7356 1.02749 8.49962 0.956475C9.11059 0.899721 9.72186 0.883811 10.335 0.919027C11.4885 0.985288 12.6098 1.19038 13.6789 1.62083C15.1253 2.20321 16.2828 3.12281 17.1656 4.36003C17.7837 5.22617 18.2086 6.17595 18.4989 7.18344C18.5007 7.18926 18.4991 7.19595 18.4991 7.21681C17.9217 7.36641 17.3394 7.51436 16.75 7.66259C16.7167 7.55743 16.6874 7.46197 16.6563 7.36699C16.4333 6.68508 16.1367 6.03547 15.7253 5.4364C15.0286 4.42183 14.0893 3.68908 12.9153 3.22942C12.2694 2.97651 11.5967 2.82371 10.9051 2.74096C10.265 2.66441 9.62325 2.64394 8.97988 2.68779C8.05216 2.75105 7.15074 2.92402 6.29522 3.28521C5.22867 3.73555 4.37955 4.4292 3.74238 5.36102C3.26567 6.05817 2.94566 6.82012 2.72335 7.62185C2.57934 8.14117 2.48154 8.66883 2.41553 9.20231C2.32555 9.92933 2.29112 10.6587 2.31936 11.3901C2.35856 12.4042 2.48835 13.4061 2.78398 14.3841C3.00111 15.1022 3.30192 15.7848 3.72806 16.4146C4.4681 17.5082 5.48865 18.2597 6.77041 18.6919C7.56509 18.9598 8.3877 19.0844 9.22728 19.1215C9.73567 19.1441 10.2426 19.1276 10.7484 19.0797C11.6418 18.9952 12.5028 18.7984 13.2967 18.3824C13.9575 18.0361 14.5286 17.5853 14.9955 17.0191C15.439 16.4814 15.7114 15.8712 15.7961 15.1906C15.8804 14.5137 15.784 13.8611 15.4568 13.2492C15.2013 12.7715 14.8177 12.4025 14.3583 12.1017C14.2973 12.0618 14.2344 12.0248 14.1603 11.9791H14.1605ZM12.4114 11.347C12.3777 11.337 12.3529 11.3274 12.3271 11.3224C12.002 11.2583 11.6738 11.2143 11.3431 11.1877C10.8803 11.1505 10.4168 11.1478 9.95311 11.1691C9.64854 11.1831 9.3461 11.2163 9.04904 11.2844C8.68395 11.3682 8.33753 11.4942 8.03774 11.7166C7.68351 11.9793 7.46445 12.318 7.43642 12.7517C7.40565 13.2283 7.59566 13.616 7.98422 13.914C8.2703 14.1334 8.6028 14.2563 8.95805 14.3281C9.39434 14.4162 9.83246 14.4103 10.27 14.3401C10.6669 14.2765 11.0317 14.1393 11.3457 13.8919C11.642 13.6585 11.8505 13.3635 12.0067 13.032C12.186 12.6517 12.286 12.2501 12.3487 11.8394C12.3735 11.677 12.3903 11.5134 12.4112 11.347H12.4114Z" fill="#FBFBFB"/>
</g>
<defs>
<clipPath id="clip0_25_1338">
<rect width="18" height="20" fill="white" transform="translate(0.5 0.900391)"/>
</clipPath>
</defs>
</svg>
