<svg width="17" height="19" viewBox="0 0 17 19" fill="none" xmlns="http://www.w3.org/2000/svg">
<g clip-path="url(#clip0_25_1333)">
<path d="M6.97879 7.32804V10.2729C6.27006 10.5005 5.5685 10.666 4.91704 10.9487C3.16313 11.7005 3.23471 13.5487 3.87901 14.5556C4.73091 15.8936 6.67812 16.3073 7.8808 15.3901C8.87588 14.6384 9.0978 13.5487 9.10496 12.4108C9.11212 9.33493 9.10496 6.26597 9.0978 3.19011C9.0978 2.43838 9.0978 1.68666 9.0978 0.893555H12.1618C12.5126 3.31424 13.8012 4.87976 16.5 5.10045V7.94183C15.7412 8.04528 15.011 7.96252 14.3023 7.70045C13.6079 7.43838 12.9349 7.12804 12.2119 6.82459C12.2119 7.0108 12.2119 7.18321 12.2119 7.35562C12.1904 9.24528 12.2262 11.1418 12.1403 13.0246C12.0258 15.5556 10.2432 17.866 7.91659 18.597C4.2799 19.728 1.25172 17.3901 0.643216 14.4177C0.142098 11.9625 0.836505 9.87286 3.04858 8.4039C4.20116 7.63838 5.52554 7.35562 6.97163 7.30735L6.97879 7.32804Z" fill="#FFFAF3"/>
</g>
<defs>
<clipPath id="clip0_25_1333">
<rect width="16" height="18" fill="white" transform="translate(0.5 0.900391)"/>
</clipPath>
</defs>
</svg>
