<svg width="19" height="20" viewBox="0 0 19 20" fill="none" xmlns="http://www.w3.org/2000/svg">
<g clip-path="url(#clip0_25_1325)">
<path d="M18.5 19.8744C16.7421 19.8744 15.1366 19.8942 13.5322 19.8533C13.2901 19.847 12.9785 19.613 12.8274 19.3914C11.4096 17.3126 10.0203 15.2136 8.62184 13.121C8.51427 12.9601 8.40052 12.8036 8.23742 12.5705C7.18556 13.8251 6.16108 15.0452 5.13929 16.2677C4.40438 17.147 3.61625 17.9874 2.95691 18.9236C2.36042 19.7703 1.66059 20.094 0.603335 19.7862C2.90987 17.018 5.20677 14.262 7.52757 11.4771C5.2006 7.98363 2.89291 4.51756 0.5 0.924011C2.3076 0.924011 3.95286 0.904947 5.59659 0.947444C5.80981 0.953004 6.06777 1.23857 6.21621 1.4578C7.65211 3.58224 9.06912 5.72058 10.5201 7.89784C12.2019 5.88183 13.8862 3.9246 15.4948 1.90342C16.1167 1.1222 16.7526 0.654733 17.8507 1.03522C15.661 3.66406 13.4736 6.28932 11.2395 8.97098C13.6359 12.5693 16.025 16.1577 18.5 19.874V19.8744ZM16.2166 18.6944C16.1487 18.5184 16.1345 18.445 16.0967 18.3894C12.5212 13.1126 8.94612 7.83628 5.35984 2.56748C5.25111 2.40782 5.0348 2.23982 4.86013 2.22949C4.20079 2.18978 3.53759 2.21361 2.83584 2.21361C2.8744 2.35937 2.87594 2.43642 2.91141 2.48924C6.49923 7.78743 10.0874 13.0852 13.6907 18.3723C13.804 18.5383 14.0705 18.6674 14.2737 18.6805C14.8917 18.7202 15.5141 18.6948 16.2166 18.6948V18.6944Z" fill="#FBFBFB"/>
</g>
<defs>
<clipPath id="clip0_25_1325">
<rect width="18" height="19" fill="white" transform="translate(0.5 0.900391)"/>
</clipPath>
</defs>
</svg>
